<svg xmlns="http://www.w3.org/2000/svg" viewBox="0 0 500 500"><g id="freepik--background-simple--inject-38"><path d="M120.24,202.36c9.09,20,6.39,44.17,11.35,65.28s13.66,42.5,26.42,60c31.22,42.79,73.91,32.38,118,27.7,35-3.73,91.57,15.29,111.64-22.29,20.33-38.06,11.07-100.82-5.13-137.62-15-34-47.57-70.26-88.94-77-47.21-7.69-60.86,45.16-103.7,9.66C155.62,99.71,102,60.28,74.15,103.75,44.59,149.84,105.25,169.35,120.24,202.36Z" style="fill:#114CD9"></path><path d="M120.24,202.36c9.09,20,6.39,44.17,11.35,65.28s13.66,42.5,26.42,60c31.22,42.79,73.91,32.38,118,27.7,35-3.73,91.57,15.29,111.64-22.29,20.33-38.06,11.07-100.82-5.13-137.62-15-34-47.57-70.26-88.94-77-47.21-7.69-60.86,45.16-103.7,9.66C155.62,99.71,102,60.28,74.15,103.75,44.59,149.84,105.25,169.35,120.24,202.36Z" style="fill:#fff;opacity:0.9"></path></g><g id="freepik--Shadow--inject-38"><ellipse id="freepik--path--inject-38" cx="250" cy="416.24" rx="193.89" ry="11.32" style="fill:#f5f5f5"></ellipse></g><g id="freepik--character-2--inject-38"><path d="M272.84,233.56c-5.33,2.24-10.51-3.17-12.12,5.5s-5.89,8.26-8.55,12.19-3.78,9.64,3.94,12.92,24.17,10.46,24.39,1.67-4.89-10.23,1.28-13.51,2.22-11.43-.34-12C282.94,233.78,277.46,231.61,272.84,233.56Z" style="fill:#263238"></path><path d="M227.65,230.49l1.61.65a2,2,0,0,1,1.21,1.4l.71,3a3.75,3.75,0,0,1-.82,3.35l-.5.57c-2.74-.89-5.05-3.88-5.05-3.88l-.75-.78a1.68,1.68,0,0,1,0-2.39l1.52-1.51A2,2,0,0,1,227.65,230.49Z" style="fill:#ce7a63"></path><path d="M259,270.2c-3.73-1.33-7.28-2.67-10.91-4.14-1.81-.75-3.61-1.54-5.44-2.39-.92-.43-1.83-.88-2.77-1.4a26.39,26.39,0,0,1-2.93-1.83c-.26-.2-.51-.39-.8-.65l-.43-.37-.46-.47-.22-.24-.14-.18-.28-.37c-.19-.24-.39-.5-.55-.73l-.91-1.36-.81-1.32c-1-1.75-1.94-3.48-2.83-5.21-1.79-3.45-3.42-6.85-5.14-10.33l7.64-3.45c1.42,3.35,3.06,6.72,4.79,9.92.88,1.59,1.79,3.16,2.73,4.61.48.72.94,1.41,1.42,2,.12.15.22.25.33.37l.16.18.08.09,0,0,0,0,.12.09.31.21a28.24,28.24,0,0,0,4.27,2c1.61.65,3.33,1.21,5.06,1.75,3.44,1.08,7.06,2,10.56,2.78Z" style="fill:#114CD9"></path><path d="M258.78,409.16c4.31,0,5-.07,7.46-.15,2.08-.07,2.57.18,4.24.15,1.39,0,1.34-1.36.91-2.9-.21-.77-.55-1.71-.84-2.95H264c-.89,1.69-3.71,3-6.13,3.29S257.06,409.16,258.78,409.16Z" style="fill:#114CD9"></path><path d="M217.48,406.68c4.15.87,5.6.9,8,1.31,2,.35,2,.73,4,1.2,1.34.31,1.94-1.14,1.76-2.37a21.24,21.24,0,0,1-.28-3.28l-5.36-1.93a10.52,10.52,0,0,1-8.21,2.59C215,403.89,215.82,406.33,217.48,406.68Z" style="fill:#114CD9"></path><path d="M243.41,294.93S231,323.15,227.91,342c-1.61,16.73-2.45,59.17-2.45,59.17-.22.89,4.51,2.52,5.51,2.36,0,0,10.5-40.28,9.48-60.77,18.69-25.68,23.28-46.3,23.28-46.3Z" style="fill:#263238"></path><path d="M253.09,308.61c-2.78,3.29-4.1,14.72-4.66,22.19A155.69,155.69,0,0,0,257.38,314C256.88,311.15,255.51,309.1,253.09,308.61Z" style="opacity:0.2"></path><path d="M249.47,295.39s-.77,34.71,2.25,51.81c3.17,17.95,13,44.32,12.28,56.11,1,.58,4.56.62,6.55,0,0,0,3.39-39.71-6.81-56.79,2.21-17.1,8.09-39.24,2.87-49.82Z" style="fill:#263238"></path><path d="M263.51,400.85a17.63,17.63,0,0,1-.23,2.42.5.5,0,0,0,.42.6,24.75,24.75,0,0,0,7-.37.5.5,0,0,0,.4-.42l.36-2.26a.5.5,0,0,0-.51-.58l-6.92.13A.49.49,0,0,0,263.51,400.85Z" style="fill:#263238"></path><path d="M263.51,400.85a17.63,17.63,0,0,1-.23,2.42.5.5,0,0,0,.42.6,24.75,24.75,0,0,0,7-.37.5.5,0,0,0,.4-.42l.36-2.26a.5.5,0,0,0-.51-.58l-6.92.13A.49.49,0,0,0,263.51,400.85Z" style="fill:#fff;opacity:0.1"></path><path d="M225,399.63c-.15.62-.41,1.72-.64,2.52a.51.51,0,0,0,.34.62,35.79,35.79,0,0,0,6.38.94.5.5,0,0,0,.5-.31l.89-2.15a.51.51,0,0,0-.37-.69l-6.52-1.3A.5.5,0,0,0,225,399.63Z" style="fill:#263238"></path><path d="M225,399.63c-.15.62-.41,1.72-.64,2.52a.51.51,0,0,0,.34.62,35.79,35.79,0,0,0,6.38.94.5.5,0,0,0,.5-.31l.89-2.15a.51.51,0,0,0-.37-.69l-6.52-1.3A.5.5,0,0,0,225,399.63Z" style="fill:#fff;opacity:0.1"></path><path d="M248,265.52c-.58,2.22-1.51,4.65-2.63,10a119.18,119.18,0,0,0-2,19.41c3,2.7,13.1,2.24,23.2,1.77,0-6.57,2.72-12.63,10.06-26.09a5.41,5.41,0,0,0-3-7.9c-.88-.3-1.81-.59-2.78-.86a73.42,73.42,0,0,0-10.3-2.34c-1.14-.15-2.33-.27-3.48-.37A8.74,8.74,0,0,0,248,265.52Z" style="fill:#114CD9"></path><path d="M271,270.66c-.39,3.31,0,7.17,1,8.78.83-1.64,1.76-3.43,2.81-5.38Z" style="opacity:0.2"></path><path d="M266.18,276.9l-6.6-2a.51.51,0,0,1-.34-.65l1.07-3.23a.55.55,0,0,1,.66-.35l6.6,2a.51.51,0,0,1,.34.65l-1.06,3.22A.55.55,0,0,1,266.18,276.9Z" style="fill:#fff"></path><path d="M264.7,272.38l-1.46-.46c-.06,0-.07-.13,0-.25l.55-1.38c.05-.12.14-.2.2-.18l1.45.45c.06,0,.08.13,0,.25l-.56,1.38C264.85,272.31,264.76,272.39,264.7,272.38Z" style="fill:#263238"></path><path d="M272.84,250.09c-1.65,3.11-4.13,8.93-2.48,11.63,0,0-4.29,0-11.46,4.12-1.31-3.2,1.16-6.46,1.16-6.46,4,0,4.7-2.74,4.83-5.42Z" style="fill:#ce7a63"></path><path d="M269.6,251.67,264.89,254a9.66,9.66,0,0,1-.23,1.87c1.47.12,3.88-1,4.48-2.38A5.19,5.19,0,0,0,269.6,251.67Z" style="opacity:0.2"></path><path d="M277.62,246c-2.41,4.58-3.33,6.56-7,8-5.53,2.14-11.18-1.61-10.31-6.76.78-4.64,4.6-11.34,10.48-11.3S280,241.47,277.62,246Z" style="fill:#ce7a63"></path><path d="M279.69,240.09A23.61,23.61,0,0,1,265.83,236C270,234.15,277.47,234.3,279.69,240.09Z" style="fill:#263238"></path><path d="M269.69,242.75c-.17.42-.53.67-.8.56s-.35-.53-.17-.94.53-.66.8-.56S269.87,242.34,269.69,242.75Z" style="fill:#263238"></path><path d="M265.05,240.91c-.18.41-.54.66-.8.55s-.35-.52-.17-.94.53-.66.8-.55S265.22,240.5,265.05,240.91Z" style="fill:#263238"></path><path d="M265,240l-.87-.68S264.3,240.34,265,240Z" style="fill:#263238"></path><path d="M269.63,241.88l-.86-.68S268.94,242.18,269.63,241.88Z" style="fill:#263238"></path><path d="M265.29,242.37a13.81,13.81,0,0,1-2.89,2c.28.75,1.34.93,1.34.93Z" style="fill:#ba4d3c"></path><path d="M264.41,247.34a4.48,4.48,0,0,1-.69-.35.14.14,0,0,1,0-.19.16.16,0,0,1,.2,0,3.84,3.84,0,0,0,3.34.43.13.13,0,0,1,.18.07.12.12,0,0,1-.08.17A4,4,0,0,1,264.41,247.34Z" style="fill:#263238"></path><path d="M276.6,250.89a3.85,3.85,0,0,1-3.1.15c-1.21-.53-.73-2,.51-2.9s3.09-1.48,3.87-.45S277.9,250.28,276.6,250.89Z" style="fill:#ce7a63"></path><path d="M274.86,239.11c-2.83,3.61.81,7.42-2.83,10.5s-14,15.83-.24,12.49c2.79-3.1,10.29-13.32,9.49-16.63S279.92,237.36,274.86,239.11Z" style="fill:#263238"></path><path d="M272.05,242.45a.27.27,0,0,1-.13-.17,2,2,0,0,0-1.19-1.48.25.25,0,0,1-.15-.34.29.29,0,0,1,.36-.16,2.52,2.52,0,0,1,1.53,1.86.29.29,0,0,1-.42.29Z" style="fill:#263238"></path><path d="M264.5,238.68a.29.29,0,0,1-.16-.11.26.26,0,0,1,.1-.37,2.86,2.86,0,0,1,2.51-.37.25.25,0,0,1,.13.35.3.3,0,0,1-.37.15,2.29,2.29,0,0,0-2,.3A.3.3,0,0,1,264.5,238.68Z" style="fill:#263238"></path><polygon points="306.8 389.69 294.94 396.04 269.99 349.41 269.99 349.41 267.08 343.97 288.82 332.33 285 325.18 278.24 328.8 247.62 271.59 247.62 271.59 245.75 268.11 245.75 268.11 190.26 164.42 190.26 164.42 190.26 164.42 163.84 162.39 161.34 157.71 162.66 157 155.74 144.07 153.31 145.37 151.31 141.62 149.77 142.45 150.72 141.94 111.53 71 148.81 142.96 148.22 143.28 150.23 147.02 147.81 148.32 154.73 161.25 156.05 160.54 158.55 165.22 145.59 188.33 145.59 188.33 145.59 188.33 233.56 352.7 244.81 346.68 226.81 356.32 230.63 363.48 252.38 351.83 280.25 403.9 287.6 399.97 268.4 410.25 270.7 414.56 309.1 394 306.8 389.69" style="fill:#fff;opacity:0.5"></polygon><rect x="151.48" y="141.58" width="3.5" height="14.67" transform="translate(-52.14 89.92) rotate(-28.16)" style="fill:#263238"></rect><polygon points="190.26 164.42 160.29 162.12 145.59 188.33 233.56 352.7 278.24 328.8 190.26 164.42" style="fill:#114CD9;opacity:0.2"></polygon><polygon points="190.26 164.42 160.29 162.12 145.59 188.33 198.33 286.87 243 262.97 190.26 164.42" style="fill:#114CD9;opacity:0.6000000000000001"></polygon><polygon points="160.29 162.12 145.59 188.33 190.26 164.42 160.29 162.12" style="fill:#114CD9"></polygon><rect x="224.82" y="340.27" width="66" height="8.11" transform="translate(-131.97 162.41) rotate(-28.16)" style="fill:#114CD9;opacity:0.30000000000000004"></rect><rect x="265.33" y="344.41" width="16.67" height="59.05" transform="translate(-144.07 173.39) rotate(-28.16)" style="fill:#114CD9;opacity:0.2"></rect><rect x="233.63" y="285.19" width="16.67" height="59.05" transform="translate(-119.88 151.42) rotate(-28.16)" style="fill:#114CD9;opacity:0.1"></rect><rect x="199.02" y="274" width="50.67" height="15.61" transform="matrix(0.88, -0.47, 0.47, 0.88, -106.43, 139.22)" style="fill:#114CD9;opacity:0.4"></rect><rect x="199.02" y="279.83" width="50.67" height="3.94" transform="matrix(0.88, -0.47, 0.47, 0.88, -106.43, 139.22)" style="fill:#114CD9;opacity:0.4"></rect><rect x="252.85" y="347.54" width="16.67" height="6.17" transform="translate(-134.54 164.74) rotate(-28.16)" style="fill:#114CD9;opacity:0.2"></rect><rect x="266.97" y="399.68" width="43.56" height="4.89" transform="translate(-155.59 183.84) rotate(-28.16)" style="fill:#114CD9;opacity:0.30000000000000004"></rect><rect x="156.75" y="204.77" width="14.33" height="5.21" transform="translate(-78.46 101.89) rotate(-28.16)" style="fill:#114CD9"></rect><rect x="169.54" y="228.68" width="14.33" height="5.21" transform="translate(-88.23 110.76) rotate(-28.16)" style="fill:#114CD9"></rect><rect x="182.33" y="252.58" width="14.33" height="5.21" transform="translate(-97.99 119.62) rotate(-28.16)" style="fill:#114CD9"></rect><rect x="195.13" y="276.48" width="14.33" height="5.21" transform="translate(-107.76 128.48) rotate(-28.16)" style="fill:#114CD9"></rect><rect x="207.92" y="300.38" width="14.33" height="5.21" transform="translate(-117.52 137.35) rotate(-28.16)" style="fill:#114CD9"></rect><rect x="220.71" y="324.29" width="14.33" height="5.21" transform="translate(-127.29 146.22) rotate(-28.16)" style="fill:#114CD9"></rect><rect x="156.72" y="153.71" width="6" height="14.67" transform="translate(-57.09 94.43) rotate(-28.16)" style="fill:#114CD9"></rect><rect x="150.73" y="145.33" width="9" height="14.67" transform="translate(-53.67 91.32) rotate(-28.16)" style="fill:#114CD9"></rect><polygon points="111.53 71 148.81 142.96 150.72 141.94 111.53 71" style="fill:#114CD9"></polygon><path d="M256.55,295.05l1.37-1.07a2,2,0,0,1,1.82-.34l2.92.86a3.76,3.76,0,0,1,2.49,2.4l.24.71c-2.15,1.93-5.89,2.43-5.89,2.43l-1.05.26a1.68,1.68,0,0,1-2.07-1.19l-.54-2.08A1.91,1.91,0,0,1,256.55,295.05Z" style="fill:#ce7a63"></path><path d="M276.25,264.47c.59.9,1,1.61,1.48,2.42s.88,1.59,1.3,2.4a48.3,48.3,0,0,1,2.25,5,33.77,33.77,0,0,1,1.63,5.5,24.3,24.3,0,0,1,.42,3c0,.53.06,1.06,0,1.6v.45a6.38,6.38,0,0,1-.09.9,7.34,7.34,0,0,1-.43,1.47,10.41,10.41,0,0,1-2.36,3.29,21.16,21.16,0,0,1-2.32,2,46.65,46.65,0,0,1-4.6,2.95,95.65,95.65,0,0,1-9.38,4.59l-2.87-6.37a88.06,88.06,0,0,0,8.31-4.72,38,38,0,0,0,3.66-2.67,13,13,0,0,0,1.4-1.35c.38-.39.62-.85.53-.76a.88.88,0,0,0-.1.28,1.85,1.85,0,0,0,0,.27s0-.12,0-.17c0-.29-.06-.59-.1-.89a15.93,15.93,0,0,0-.42-1.9,26.13,26.13,0,0,0-1.54-4,42.1,42.1,0,0,0-2.15-3.94c-.4-.65-.82-1.29-1.24-1.91s-.9-1.29-1.27-1.76Z" style="fill:#114CD9"></path></g><g id="freepik--character-3--inject-38"><path d="M420.2,249.07s-2.89,2-5.57,1.26c3.92-2.83,1.53-11.85,1.1-12.92a4.79,4.79,0,0,0-2.24,3.7,5.25,5.25,0,0,0-4.88-5,14,14,0,0,1-10.6-7.29,8,8,0,0,0-.41,6.24c-3.31.29-7,.21-7.48-1.28-.07,3,2.48,5.55.31,5.49s-1.78-1.49-1.78-1.49-2.21,2-.35,5.47-1.59,6.39,1.22,10C400.7,267,408.84,260,408.84,260a2.37,2.37,0,0,1,0,2.55s7.2-2.77,3-6.17C419.47,256.44,420.2,249.07,420.2,249.07Z" style="fill:#e0e0e0"></path><polygon points="335.07 393.24 343.86 395.8 340.62 406.1 333.27 403.98 335.07 393.24" style="fill:#7f3e3b"></polygon><polygon points="335.07 393.24 343.87 395.8 342.05 401.57 334.06 399.26 335.07 393.24" style="opacity:0.2"></polygon><path d="M359.7,356c7.94-12.21,18.13-24.44,17.34-38.33l-24.62-6.78s-9.35,26.65-11.61,39.25c-2.36,13.1-6.93,46.65-6.93,46.65l9.81,3.68S356.55,370.56,359.7,356Z" style="fill:#263238"></path><path d="M341.72,408.78l-2.34-.63-.35-.94-1.18.53-13-3.52a5.2,5.2,0,0,1,1.07-2.56s4.71.49,6.79-.24a1.39,1.39,0,0,1,1.09.07c1.49.73,5.48,2.53,8,2.26a.41.41,0,0,1,.41.48A28.53,28.53,0,0,0,341.72,408.78Z" style="fill:#263238"></path><polygon points="372.88 401.69 382.02 402.24 381.88 413.04 374.25 412.6 372.88 401.69" style="fill:#7f3e3b"></polygon><polygon points="372.88 401.7 382.03 402.24 381.95 408.29 373.64 407.81 372.88 401.7" style="opacity:0.2"></polygon><path d="M386.43,363.79c3.14-13.53,11.75-33.16,8.94-40.53L368,315.16s-2.75,33.45-2.06,46.56c.72,13.63,6.77,44.18,6.77,44.18l9.89.52S387.35,380,386.43,363.79Z" style="fill:#263238"></path><path d="M338.43,272.17l.19,3.85c-1.26,3.86-5.93,1.39-5.93,1.39l-2.73-.28a2,2,0,0,1-1.71-2l-.15-2.69a2.14,2.14,0,0,1,1.82-2.36l2.38-.15a4.3,4.3,0,0,1,2,.38Z" style="fill:#7f3e3b"></path><path d="M383.39,275c-1.82,1.32-3.65,2.56-5.48,3.83s-3.7,2.48-5.55,3.72c-3.71,2.48-7.51,4.81-11.39,7.18l-1.55.95-1.33.11a16.15,16.15,0,0,1-4.83-.32,28.23,28.23,0,0,1-3.61-1,49.46,49.46,0,0,1-6.09-2.71c-1.88-1-3.68-2.07-5.45-3.16S334.7,281.26,333,280l5-8.31c1.64.7,3.44,1.48,5.17,2.15s3.47,1.37,5.19,1.94a44.56,44.56,0,0,0,5,1.43,15.1,15.1,0,0,0,2.12.34,2.39,2.39,0,0,0,1-.06l-2.88,1.06c3.49-2.51,6.94-5.22,10.47-7.82s7-5.28,10.55-7.84Z" style="fill:#114CD9"></path><g style="opacity:0.2"><path d="M383.39,275c-1.82,1.32-3.65,2.56-5.48,3.83s-3.7,2.48-5.55,3.72c-3.71,2.48-7.51,4.81-11.39,7.18l-1.55.95-1.33.11a16.15,16.15,0,0,1-4.83-.32,28.23,28.23,0,0,1-3.61-1,49.46,49.46,0,0,1-6.09-2.71c-1.88-1-3.68-2.07-5.45-3.16S334.7,281.26,333,280l5-8.31c1.64.7,3.44,1.48,5.17,2.15s3.47,1.37,5.19,1.94a44.56,44.56,0,0,0,5,1.43,15.1,15.1,0,0,0,2.12.34,2.39,2.39,0,0,0,1-.06l-2.88,1.06c3.49-2.51,6.94-5.22,10.47-7.82s7-5.28,10.55-7.84Z" style="fill:#fff"></path></g><path d="M382.37,260.39a115.2,115.2,0,0,1,24.45,7.06A8.59,8.59,0,0,1,411,279.2c-9,18.19-13.46,41.88-14.88,45.57,0,0-40.1,1.4-45.38-12.9,3.89-24.24,17.66-41.5,23.73-48.59A8.55,8.55,0,0,1,382.37,260.39Z" style="fill:#fff"></path><path d="M413.39,273.76c-.78-2.48-2.51-6-11.62-8.85a78.24,78.24,0,0,0-19.15,11.25,15.1,15.1,0,0,1,5.27-15c-5.19-1.77-9.15-1.43-10.68-1s-11.66,9.5-19.64,27S340,339.23,338,348.25c14.23,12.94,44.72,15.65,52.8,11.95,4.32-13.93,6.79-36.31,9.08-45.36S414.41,278.45,413.39,273.76Z" style="fill:#114CD9"></path><path d="M413.39,273.76c-.78-2.48-2.51-6-11.62-8.85a78.24,78.24,0,0,0-19.15,11.25,15.1,15.1,0,0,1,5.27-15c-5.19-1.77-9.15-1.43-10.68-1s-11.66,9.5-19.64,27S340,339.23,338,348.25c14.23,12.94,44.72,15.65,52.8,11.95,4.32-13.93,6.79-36.31,9.08-45.36S414.41,278.45,413.39,273.76Z" style="fill:#fff;opacity:0.30000000000000004"></path><path d="M385.85,262.86a5.32,5.32,0,0,1,3.11-1.67,5,5,0,0,0,1-3.21l13.15-.57c-2.06,3.74-3.69,6.69-2.73,9-2.77.8-7.84,2.23-12.55.8S384.62,264.32,385.85,262.86Z" style="fill:#7f3e3b"></path><path d="M389.92,258.38l9.23,1.93c-3.67,2.27-8.28,2.24-9.91.47A5,5,0,0,0,389.92,258.38Z" style="opacity:0.2"></path><path d="M387.51,267.16l2.4-1.1,2.28,2S390.08,269.22,387.51,267.16Z" style="fill:#e0e0e0"></path><path d="M407.1,251.89c-2.94,5.24-5.05,8.74-9.28,9.51-8.42,1.53-10.74-3.23-9.42-9.26,1.18-5.43,5.79-13.09,12.11-12.64A8.28,8.28,0,0,1,407.1,251.89Z" style="fill:#7f3e3b"></path><path d="M400.1,253.53c-3.11.55-7.7-1.36-9.63-2.38-.82-.43-1.35-.49-1.74-.27q-.19.65-.33,1.26c-1.32,6,1,10.79,9.42,9.26a9.22,9.22,0,0,0,5.85-4h0a11.37,11.37,0,0,0,.72-1.81A3.9,3.9,0,0,0,400.1,253.53Z" style="fill:#263238;opacity:0.2"></path><path d="M392.09,253.94a7,7,0,0,1-.86-.59.17.17,0,0,1,0-.25.19.19,0,0,1,.27,0,5.32,5.32,0,0,0,4.43,1.11.19.19,0,0,1,.24.12.19.19,0,0,1-.14.22A5.63,5.63,0,0,1,392.09,253.94Z" style="fill:#263238"></path><path d="M405.52,255.61a8.09,8.09,0,0,1-5.42-2.08s4-.43,5.72-2.38a3.11,3.11,0,0,1-2.86-1.82,5.11,5.11,0,0,0,3.75-1.44c-3-2.72-4.21-4.5-4.37-6.11-3.18.61-7.33-.53-8.26-1.72,3.05-2.87,7.8-3.14,11.05-1.87S415,249,405.52,255.61Z" style="fill:#e0e0e0"></path><path d="M399.5,249.51a2.79,2.79,0,0,1,1.95.82A5.38,5.38,0,0,1,399.5,249.51Z" style="opacity:0.2"></path><path d="M399.34,250a2.3,2.3,0,0,1,1.52,1.17A4.54,4.54,0,0,1,399.34,250Z" style="opacity:0.2"></path><path d="M392,246s-.26-.72-.71-.55A1.19,1.19,0,0,0,392,246Z" style="opacity:0.2"></path><path d="M391.78,246.4s-.2-.63-.61-.26A.56.56,0,0,0,391.78,246.4Z" style="opacity:0.2"></path><path d="M395.31,242.3a19.46,19.46,0,0,1,5.05,1.62C397.51,243.15,395.31,242.3,395.31,242.3Z" style="opacity:0.2"></path><path d="M394.4,242.78s3.85,1.28,5.47,2.74A38.39,38.39,0,0,1,394.4,242.78Z" style="opacity:0.2"></path><path d="M407.1,258.44a5.65,5.65,0,0,1-4.24,1c-2-.34-2.12-2.32-.86-3.74s3.51-2.65,5.15-1.57A2.57,2.57,0,0,1,407.1,258.44Z" style="fill:#7f3e3b"></path><path d="M397.93,249.1c-.21.44-.61.68-.9.54s-.35-.61-.14-1,.62-.68.91-.54S398.15,248.66,397.93,249.1Z" style="fill:#263238"></path><path d="M393.24,246.91c-.22.44-.62.68-.91.54s-.34-.61-.13-1,.62-.68.9-.54S393.45,246.47,393.24,246.91Z" style="fill:#263238"></path><path d="M394.56,247.89l-1.76,3.72a3.51,3.51,0,0,1-2.1-1.38A8.59,8.59,0,0,1,394.56,247.89Z" style="fill:#630f0f"></path><path d="M400.08,248.36a.38.38,0,0,0,.15,0,.29.29,0,0,0,.22-.34,2.86,2.86,0,0,0-1.58-2.1.28.28,0,0,0-.37.15.29.29,0,0,0,.15.38h0a2.32,2.32,0,0,1,1.24,1.68A.29.29,0,0,0,400.08,248.36Z" style="fill:#263238"></path><path d="M391.35,244.35a.29.29,0,0,0,.27,0,2.24,2.24,0,0,1,2.06-.22.29.29,0,0,0,.38-.14.3.3,0,0,0-.14-.38,2.79,2.79,0,0,0-2.6.24.29.29,0,0,0-.1.4A.33.33,0,0,0,391.35,244.35Z" style="fill:#263238"></path><path d="M403.38,281.22c-.27,3.65,1.11,13.27,2.79,15.89.77-2,1.54-4,2.27-6Z" style="fill:#114CD9;opacity:0.5"></path><path d="M150.87,179.43a.51.51,0,0,1-.1-1l42.71-8.3a.53.53,0,0,1,.48.16.51.51,0,0,1,.09.49l-2.24,6.71a.51.51,0,0,1-.46.34l-40.46,1.59Zm42-8.15-35.45,6.89L191,176.85Z" style="fill:#263238"></path><path d="M150.32,197.67a.56.56,0,0,1-.27-.08.5.5,0,0,1-.15-.69l21.64-34.15a.5.5,0,0,1,.69-.16.49.49,0,0,1,.16.69l-21.65,34.16A.48.48,0,0,1,150.32,197.67Z" style="fill:#263238"></path><path d="M148.05,193.42a.5.5,0,0,1-.39-.18.51.51,0,0,1,.07-.71l36-29a.5.5,0,1,1,.63.78l-36,29A.45.45,0,0,1,148.05,193.42Z" style="fill:#263238"></path><path d="M396.92,340.94a.5.5,0,0,1-.5-.5V324.81c0-7-2.9-9.7-2.93-9.72L191.05,177.75a.5.5,0,0,1-.13-.7.49.49,0,0,1,.69-.13L394.11,314.3c.18.16,3.31,3.05,3.31,10.51v15.63A.5.5,0,0,1,396.92,340.94Z" style="fill:#263238"></path><path d="M396.81,308.9l2.7,2.75c1.64,3.71-3.49,5-3.49,5l-2.22,1.62a2.06,2.06,0,0,1-2.62-.37L389.27,316a2.14,2.14,0,0,1-.22-3l1.68-1.7a4.38,4.38,0,0,1,1.76-1.07Z" style="fill:#7f3e3b"></path><path d="M412.63,272.08c.38.64.64,1.1.94,1.63l.82,1.52c.54,1,1.05,2,1.55,3.07,1,2.07,1.86,4.2,2.67,6.38a60.63,60.63,0,0,1,2.05,6.78,46.89,46.89,0,0,1,1.11,7.4l.09,1.26-.25.9a13.08,13.08,0,0,1-2.62,5,20,20,0,0,1-2.95,2.85,36.83,36.83,0,0,1-5.74,3.69c-1.9,1-3.79,1.83-5.69,2.59s-3.76,1.39-5.84,2l-3.69-9.91c1.46-.72,3.11-1.61,4.61-2.47s3-1.78,4.38-2.73a24.53,24.53,0,0,0,3.56-2.87,6.32,6.32,0,0,0,1-1.22c.18-.31.13-.46,0-.07l-.16,2.16a33.25,33.25,0,0,0-1.18-4.94c-.57-1.69-1.22-3.4-2-5.11s-1.61-3.41-2.5-5.08c-.45-.84-.91-1.67-1.39-2.49l-.72-1.2c-.23-.38-.51-.82-.68-1.07Z" style="fill:#114CD9"></path><g style="opacity:0.30000000000000004"><path d="M412.63,272.08c.38.64.64,1.1.94,1.63l.82,1.52c.54,1,1.05,2,1.55,3.07,1,2.07,1.86,4.2,2.67,6.38a60.63,60.63,0,0,1,2.05,6.78,46.89,46.89,0,0,1,1.11,7.4l.09,1.26-.25.9a13.08,13.08,0,0,1-2.62,5,20,20,0,0,1-2.95,2.85,36.83,36.83,0,0,1-5.74,3.69c-1.9,1-3.79,1.83-5.69,2.59s-3.76,1.39-5.84,2l-3.69-9.91c1.46-.72,3.11-1.61,4.61-2.47s3-1.78,4.38-2.73a24.53,24.53,0,0,0,3.56-2.87,6.32,6.32,0,0,0,1-1.22c.18-.31.13-.46,0-.07l-.16,2.16a33.25,33.25,0,0,0-1.18-4.94c-.57-1.69-1.22-3.4-2-5.11s-1.61-3.41-2.5-5.08c-.45-.84-.91-1.67-1.39-2.49l-.72-1.2c-.23-.38-.51-.82-.68-1.07Z" style="fill:#fff"></path></g><path d="M400.22,263.62s-5.16,3.58-10.31,2.44a15,15,0,0,1,3.8,5.59s6.48-2,8.63-5.64C402.36,264.44,400.22,263.62,400.22,263.62Z" style="fill:#fff"></path><path d="M356.53,355.87h0a.3.3,0,0,1-.25-.35c6.44-41,25.55-78.46,25.74-78.84a.31.31,0,0,1,.41-.13.32.32,0,0,1,.13.41c-.2.37-19.27,37.7-25.69,78.66A.31.31,0,0,1,356.53,355.87Z" style="fill:#114CD9;opacity:0.30000000000000004"></path><path d="M387.51,267.16l-1.69-2.6-3.06.07A4.74,4.74,0,0,0,387.51,267.16Z" style="fill:#e0e0e0"></path><path d="M389,261.19s-2.6,1.75-3.14,3.37a26.42,26.42,0,0,0-5.32,1.35,11.25,11.25,0,0,1,6.05-4.92A4.1,4.1,0,0,1,389,261.19Z" style="fill:#fff"></path><path d="M383.28,415.91h-2l-.54-.81-1.05.82h-12a5.33,5.33,0,0,1,.51-2.75s3.6-.32,5-2.12a.44.44,0,0,1,.44-.17c1.2.25,5.95,1.15,8.57.21a.43.43,0,0,1,.58.39A29.88,29.88,0,0,0,383.28,415.91Z" style="fill:#263238"></path></g><g id="freepik--character-1--inject-38"><path d="M154.51,221.88l3.69,2.18c4.43.77,4.43-5.1,4.43-5.1l1.15-2.82a2.29,2.29,0,0,0-1.1-2.73l-2.57-1.54a2.35,2.35,0,0,0-3.25.55l-1.39,2.27a4.69,4.69,0,0,0-.68,2.18Z" style="fill:#ffb573"></path><path d="M109,244l14.75-5.59,7.34-2.8c2.43-.93,4.84-1.88,7.16-2.86l-.71.39a22,22,0,0,0,3.79-2.68c1.38-1.17,2.79-2.47,4.18-3.84s2.79-2.79,4.14-4.27,2.76-3,4.06-4.4l8.92,6.06c-1.07,2-2.16,3.85-3.33,5.73s-2.41,3.68-3.72,5.49a67.66,67.66,0,0,1-4.35,5.36,33.2,33.2,0,0,1-5.91,5.24l-.11.07-.6.31c-2.49,1.29-4.94,2.48-7.39,3.65s-4.9,2.3-7.37,3.38-4.91,2.17-7.39,3.21-4.94,2.07-7.47,3.05Z" style="fill:#114CD9"></path><g style="opacity:0.6000000000000001"><path d="M109,244l14.75-5.59,7.34-2.8c2.43-.93,4.84-1.88,7.16-2.86l-.71.39a22,22,0,0,0,3.79-2.68c1.38-1.17,2.79-2.47,4.18-3.84s2.79-2.79,4.14-4.27,2.76-3,4.06-4.4l8.92,6.06c-1.07,2-2.16,3.85-3.33,5.73s-2.41,3.68-3.72,5.49a67.66,67.66,0,0,1-4.35,5.36,33.2,33.2,0,0,1-5.91,5.24l-.11.07-.6.31c-2.49,1.29-4.94,2.48-7.39,3.65s-4.9,2.3-7.37,3.38-4.91,2.17-7.39,3.21-4.94,2.07-7.47,3.05Z" style="fill:#fff"></path></g><path d="M132.4,245.52a6,6,0,0,0-2.6-2.94,5.55,5.55,0,0,1,.24-3.71l-13.47-5.67c.7,4.68,1.25,8.38-.65,10.46,2.57,1.91,7.3,5.35,12.76,5.68S133.11,247.53,132.4,245.52Z" style="fill:#ffb573"></path><path d="M131.39,224.91l.91,4.47a3.88,3.88,0,0,0,2.63-.93A9.49,9.49,0,0,0,131.39,224.91Z" style="fill:#ed893e"></path><path d="M131.19,224.33c.16.52.57.85.91.74s.47-.63.31-1.14-.58-.85-.92-.73S131,223.82,131.19,224.33Z" style="fill:#263238"></path><path d="M130.84,220.06a.31.31,0,0,1-.14.26,2.54,2.54,0,0,0-1.15,2,.32.32,0,0,1-.31.33.32.32,0,0,1-.32-.32,3.12,3.12,0,0,1,1.42-2.52.31.31,0,0,1,.44.08A.28.28,0,0,1,130.84,220.06Z" style="fill:#263238"></path><path d="M113.11,228.16c2.44,6.22,4.23,10.38,8.78,11.87,9,3,12.3-1.91,11.77-8.75-.49-6.15-4.39-15.28-11.41-15.74A9.2,9.2,0,0,0,113.11,228.16Z" style="fill:#ffb573"></path><path d="M128.58,227.47a3.41,3.41,0,0,0,1.88-1.09s-.79-3.71-2.83-4.38c-.09-2.37-1-4.29-3.55-4.46s-10.41,6.21-10.49,2.75c-2.55.63-3.67,6.17-2.38,10.21a10.18,10.18,0,0,0,6.16,6.29c.21-1.54,6.88-1.29,8-.79C126,232.58,128.58,227.47,128.58,227.47Z" style="fill:#263238"></path><path d="M123.39,218.4a.49.49,0,0,1-.37-.16,6,6,0,0,0-4.68-1.62.5.5,0,0,1-.08-1,7,7,0,0,1,5.5,1.94.51.51,0,0,1,0,.71A.5.5,0,0,1,123.39,218.4Z" style="fill:#263238"></path><path d="M121,220.16a.5.5,0,0,1-.45-.28c0-.09-1.12-2.18-4.9-1.79a.52.52,0,0,1-.55-.45.5.5,0,0,1,.44-.55c4.52-.46,5.86,2.24,5.92,2.36a.5.5,0,0,1-.24.66A.42.42,0,0,1,121,220.16Z" style="fill:#263238"></path><path d="M119.52,222.23a.49.49,0,0,1-.45-.29c0-.11-1-2.22-4.89-2.08a.48.48,0,0,1-.51-.49.49.49,0,0,1,.48-.51c4.55-.15,5.78,2.55,5.83,2.67a.51.51,0,0,1-.25.66A.52.52,0,0,1,119.52,222.23Z" style="fill:#263238"></path><path d="M124.77,228.73a5.48,5.48,0,0,0,3,3c1.8.72,2.92-.84,2.61-2.64-.28-1.63-1.55-4-3.44-3.91A2.5,2.5,0,0,0,124.77,228.73Z" style="fill:#ffb573"></path><polygon points="134.39 400.42 124.22 400.52 124.61 412.51 133.1 412.45 134.39 400.42" style="fill:#ffb573"></polygon><polygon points="134.39 400.43 124.22 400.52 124.43 407.24 133.67 407.16 134.39 400.43" style="opacity:0.2"></polygon><path d="M123.59,352.64c-3.54-15.79-9.42-32.45-3.23-46.62l28.25,2.47s-2.79,33.59-3.55,47.79C144.28,371,134.7,405.1,134.7,405.1l-11.64,0S121.25,369,123.59,352.64Z" style="fill:#263238"></path><path d="M123,416.23h2.68l.65-.9,1.11.91h15a5.86,5.86,0,0,0-.4-3.06s-5.21-.84-7.22-2.22a1.56,1.56,0,0,0-1.19-.25c-1.81.35-6.61,1.13-9.2.12a.45.45,0,0,0-.58.39A33.7,33.7,0,0,1,123,416.23Z" style="fill:#263238"></path><polygon points="93.58 389.21 83.74 386.63 80.16 398.09 88.37 400.26 93.58 389.21" style="fill:#ffb573"></polygon><polygon points="93.58 389.22 83.73 386.64 81.73 393.05 90.66 395.4 93.58 389.22" style="opacity:0.2"></polygon><path d="M91.82,349.76c.57-15.41,1.53-38.45,7.31-45l31.61,2.14s-11.81,32.78-16.36,46.63c-4.74,14.41-22.08,40.21-22.08,40.21l-10.62-2.86S86.12,366.89,91.82,349.76Z" style="fill:#263238"></path><path d="M137,244.3a127.83,127.83,0,0,0-28.2-2.1,9.53,9.53,0,0,0-8.92,10.6c2.38,22.44-2.19,48.81-2.13,53.2,0,0,41.21,17,52.23,4.12,5.32-26.74-2.34-50-5.91-59.77A9.51,9.51,0,0,0,137,244.3Z" style="fill:#114CD9"></path><path d="M123.6,352.64c-.3,2.05-.53,4.42-.7,7a126.08,126.08,0,0,0,21.66,1.77c.24-1.88.42-3.6.5-5.13.11-2.11.27-4.66.46-7.45a196.46,196.46,0,0,1-22.87-.21C123,350,123.3,351.3,123.6,352.64Z" style="fill:#263238;opacity:0.1"></path><path d="M91.54,350.57a109.89,109.89,0,0,0,21.19,7,39.36,39.36,0,0,0,1.65-4.09c.51-1.58,1.13-3.41,1.8-5.4A228.41,228.41,0,0,1,92,344.63c-.07,1.78-.14,3.5-.2,5.13Z" style="fill:#263238;opacity:0.1"></path><path d="M89.65,345c6,6,30.93,13.42,50.42,10.41a45,45,0,0,0,2.72-7.79,32.61,32.61,0,0,1,.6,7.15,38.31,38.31,0,0,0,5.85-1.8c1.33-10.19,4.76-49.95,3.21-71.22s-8.58-34.67-10-35.67-11.05-3.71-22.09-4.55c-10.09-.76-19.09,1.72-20.84,4.72-2.87,4.49-.66,37.72-1.77,48S90.53,328.8,89.65,345Z" style="fill:#114CD9"></path><path d="M89.65,345c6,6,30.93,13.42,50.42,10.41a45,45,0,0,0,2.72-7.79,32.61,32.61,0,0,1,.6,7.15,38.31,38.31,0,0,0,5.85-1.8c1.33-10.19,4.76-49.95,3.21-71.22s-8.58-34.67-10-35.67-11.05-3.71-22.09-4.55c-10.09-.76-19.09,1.72-20.84,4.72-2.87,4.49-.66,37.72-1.77,48S90.53,328.8,89.65,345Z" style="fill:#fff;opacity:0.6000000000000001"></path><path d="M77,399.1l1.84,1.21,1-.42.47,1.4,11.14,7.34a6,6,0,0,0,1.21-2.87s-3.14-2.49-3.32-5a.52.52,0,0,0-.31-.44c-1.26-.49-6.22-2.57-8.07-5a.47.47,0,0,0-.78,0A31.89,31.89,0,0,1,77,399.1Z" style="fill:#263238"></path><path d="M170.21,247l2.78,3.26c3.94,2.17,5.86-3.38,5.86-3.38l2-2.3a2.28,2.28,0,0,0-.15-2.93l-1.93-2.3a2.38,2.38,0,0,0-3.26-.53l-2,1.69a4.66,4.66,0,0,0-1.36,1.84Z" style="fill:#ffb573"></path><path d="M170.08,247.32c-1.45-3.37.69-5.89,1.74-8.36.18-.42,1.39-.37,1.56.44a3.79,3.79,0,0,1-.31,2.93,4.56,4.56,0,0,1,.11,6.14A4.68,4.68,0,0,1,170.08,247.32Z" style="fill:#ffb573"></path><path d="M148.14,258.51c-1.17-.86-2.32-1.67-3.44-2.42-3.34,1.09-5.12,3.66-3.57,5.31,1.85,2,5.22,3.85,9.12,5.05C149.6,263.52,148.88,260.86,148.14,258.51Z" style="fill:#114CD9;opacity:0.5"></path><path d="M118.72,294.22s-12.46-1-16.09-3.17C107,294.61,113,295.08,118.72,294.22Z" style="fill:#114CD9;opacity:0.5"></path><path d="M117.31,295.67s-9.17.57-12-.61C108.83,297.18,113.25,296.89,117.31,295.67Z" style="fill:#114CD9;opacity:0.5"></path><path d="M139.57,244.94l2.2.81,2.35.82c1.58.54,3.17,1.09,4.77,1.58,3.2,1,6.42,1.9,9.63,2.66l-3.4.24a15,15,0,0,0,3.12-1.07A37.07,37.07,0,0,0,162,248c1.28-.72,2.55-1.55,3.83-2.38.64-.42,1.29-.85,1.92-1.28l1.85-1.27,7.69,7.56c-.62.8-1.14,1.46-1.73,2.15s-1.15,1.36-1.76,2c-1.22,1.32-2.49,2.59-3.87,3.83a43.78,43.78,0,0,1-4.5,3.55,27.85,27.85,0,0,1-5.83,3.07l-1.27.47-2.14-.23a93.42,93.42,0,0,1-11.36-1.87c-1.86-.42-3.71-.86-5.55-1.39l-2.76-.83c-.95-.3-1.78-.58-2.87-1Z" style="fill:#114CD9"></path><g style="opacity:0.6000000000000001"><path d="M139.57,244.94l2.2.81,2.35.82c1.58.54,3.17,1.09,4.77,1.58,3.2,1,6.42,1.9,9.63,2.66l-3.4.24a15,15,0,0,0,3.12-1.07A37.07,37.07,0,0,0,162,248c1.28-.72,2.55-1.55,3.83-2.38.64-.42,1.29-.85,1.92-1.28l1.85-1.27,7.69,7.56c-.62.8-1.14,1.46-1.73,2.15s-1.15,1.36-1.76,2c-1.22,1.32-2.49,2.59-3.87,3.83a43.78,43.78,0,0,1-4.5,3.55,27.85,27.85,0,0,1-5.83,3.07l-1.27.47-2.14-.23a93.42,93.42,0,0,1-11.36-1.87c-1.86-.42-3.71-.86-5.55-1.39l-2.76-.83c-.95-.3-1.78-.58-2.87-1Z" style="fill:#fff"></path></g></g></svg>